<?xml version="1.0" encoding="UTF-8" standalone="no"?><!DOCTYPE svg PUBLIC "-//W3C//DTD SVG 1.1//EN" "http://www.w3.org/Graphics/SVG/1.1/DTD/svg11.dtd"><svg width="100%" height="100%" viewBox="0 0 387 410" version="1.1" xmlns="http://www.w3.org/2000/svg" xmlns:xlink="http://www.w3.org/1999/xlink" xml:space="preserve" style="fill-rule:evenodd;clip-rule:evenodd;stroke-linejoin:round;stroke-miterlimit:1.41421;"><g id="logo"><g id="Group"><g id="bottomLayer"><g id="Rectangle-4"><path id="path-2" d="M266.358,34.911c-3.629,-7.441 -12.616,-10.536 -20.057,-6.907l-233.687,113.977c-7.441,3.629 -10.535,12.617 -6.906,20.057l113.976,233.687c3.63,7.441 12.617,10.535 20.058,6.906l233.686,-113.976c7.441,-3.629 10.536,-12.617 6.907,-20.058l-113.977,-233.686Z" style="fill:#000;"/><path id="path-21" d="M266.358,34.911c-3.629,-7.441 -12.616,-10.536 -20.057,-6.907l-233.687,113.977c-7.441,3.629 -10.535,12.617 -6.906,20.057l113.976,233.687c3.63,7.441 12.617,10.535 20.058,6.906l233.686,-113.976c7.441,-3.629 10.536,-12.617 6.907,-20.058l-113.977,-233.686Z" style="fill:url(#_Linear1);"/></g><path id="Combined-Shape" d="M174.254,177.32l-169.664,-14.902l38.148,75.997l87.026,7.465l-47.823,73.695l36.264,75.788l92.89,-142.507l169.486,14.538l-37.395,-75.237l-87.515,-7.686l47.696,-73.173l-36.401,-76.85l-92.712,142.872Z" style="fill:#fff;fill-opacity:0.74902;"/></g><g id="topLayer"><g id="Rectangle-41"><path id="path-6" d="M337.059,14.911c-1.438,-8.153 -9.224,-13.605 -17.377,-12.167l-256.05,45.148c-8.153,1.438 -13.605,9.224 -12.167,17.377l45.148,256.05c1.438,8.153 9.224,13.605 17.377,12.167l256.05,-45.148c8.153,-1.438 13.605,-9.224 12.167,-17.377l-45.148,-256.05Z" style="fill:#000;"/><path id="path-61" d="M337.059,14.911c-1.438,-8.153 -9.224,-13.605 -17.377,-12.167l-256.05,45.148c-8.153,1.438 -13.605,9.224 -12.167,17.377l45.148,256.05c1.438,8.153 9.224,13.605 17.377,12.167l256.05,-45.148c8.153,-1.438 13.605,-9.224 12.167,-17.377l-45.148,-256.05Z" style="fill:url(#_Radial2);"/></g><g id="framer"><path id="Rectangle" d="M124.512,70.666l146.736,-25.873l13.024,73.86l-73.369,12.937l-86.391,-60.924Z" style="fill:url(#_Linear3);"/><path id="Rectangle-Copy" d="M137.535,144.527l73.368,-12.937l86.392,60.924l-146.736,25.874l-13.024,-73.861Z" style="fill:url(#_Linear4);"/><path id="Rectangle-Copy-2" d="M150.559,218.388l73.86,-13.024l13.024,73.861l-86.884,-60.837Z" style="fill:url(#_Linear5);"/></g></g></g></g><defs><linearGradient id="_Linear1" x1="0" y1="0" x2="1" y2="0" gradientUnits="userSpaceOnUse" gradientTransform="matrix(387.778,133.523,-133.523,387.778,-0.867709,148.557)"><stop offset="0%" style="stop-color:#53a0fe;stop-opacity:1"/><stop offset="100%" style="stop-color:#3023ae;stop-opacity:1"/></linearGradient><radialGradient id="_Radial2" cx="0" cy="0" r="1" gradientUnits="userSpaceOnUse" gradientTransform="matrix(267.88,-47.2344,47.2344,267.88,205.958,106.425)"><stop offset="0%" style="stop-color:#fff;stop-opacity:1"/><stop offset="100%" style="stop-color:#e0e0e0;stop-opacity:1"/></radialGradient><linearGradient id="_Linear3" x1="0" y1="0" x2="1" y2="0" gradientUnits="userSpaceOnUse" gradientTransform="matrix(-140.225,62.8039,-62.8039,-140.225,271.248,44.7929)"><stop offset="0%" style="stop-color:#eea3f2;stop-opacity:1"/><stop offset="100%" style="stop-color:#d969e1;stop-opacity:1"/></linearGradient><linearGradient id="_Linear4" x1="0" y1="0" x2="1" y2="0" gradientUnits="userSpaceOnUse" gradientTransform="matrix(-140.225,62.8039,-62.8039,-140.225,284.272,118.653)"><stop offset="0%" style="stop-color:#b8ffc9;stop-opacity:1"/><stop offset="100%" style="stop-color:#82ff98;stop-opacity:1"/></linearGradient><linearGradient id="_Linear5" x1="0" y1="0" x2="1" y2="0" gradientUnits="userSpaceOnUse" gradientTransform="matrix(-82.9629,-61.5284,61.5284,-82.9629,237.443,279.225)"><stop offset="0%" style="stop-color:#30702d;stop-opacity:1"/><stop offset="100%" style="stop-color:#153d14;stop-opacity:1"/></linearGradient></defs></svg>