<svg viewBox="0 0 387 410" xmlns="http://www.w3.org/2000/svg" fill-rule="evenodd" clip-rule="evenodd" stroke-linejoin="round" stroke-miterlimit="1.414">
  <path d="M266.358 34.91c-3.63-7.44-12.616-10.535-20.057-6.906L12.62 141.98c-7.44 3.63-10.535 12.62-6.907 20.06L119.69 395.727c3.63 7.44 12.616 10.535 20.057 6.906L373.43 288.658c7.44-3.63 10.535-12.617 6.906-20.058L266.358 34.91z"/>
  <path d="M266.358 34.91c-3.63-7.44-12.616-10.535-20.057-6.906L12.62 141.98c-7.44 3.63-10.535 12.62-6.907 20.06L119.69 395.727c3.63 7.44 12.616 10.535 20.057 6.906L373.43 288.658c7.44-3.63 10.535-12.617 6.906-20.058L266.358 34.91z" fill="url(#a)"/>
  <path d="M174.254 177.32L4.59 162.418l38.148 75.997 87.026 7.465-47.823 73.695 36.27 75.788 92.89-142.507 169.487 14.538-37.394-75.237-87.515-7.686 47.697-73.17-36.4-76.85-92.71 142.87z" fill="#fff" fill-opacity=".749"/>
  <path d="M337.06 14.91c-1.44-8.152-9.225-13.604-17.378-12.166L63.632 47.892C55.48 49.33 50.027 57.116 51.465 65.27l45.148 256.05c1.438 8.152 9.224 13.604 17.377 12.166l256.05-45.148c8.153-1.438 13.605-9.224 12.167-17.377L337.06 14.91z"/>
  <path d="M337.06 14.91c-1.44-8.152-9.225-13.604-17.378-12.166L63.632 47.892C55.48 49.33 50.027 57.116 51.465 65.27l45.148 256.05c1.438 8.152 9.224 13.604 17.377 12.166l256.05-45.148c8.153-1.438 13.605-9.224 12.167-17.377L337.06 14.91z" fill="url(#b)"/>
  <path d="M124.512 70.666l146.736-25.873 13.024 73.86-73.37 12.937-86.39-60.924z" fill="url(#c)"/>
  <path d="M137.535 144.527l73.368-12.937 86.392 60.924-146.736 25.874-13.03-73.86z" fill="url(#d)"/>
  <path d="M150.56 218.388l73.86-13.024 13.023 73.86-86.884-60.836z" fill="url(#e)"/>
  <defs>
    <linearGradient id="a" x2="1" gradientUnits="userSpaceOnUse" gradientTransform="rotate(19 -444.304 71.685) scale(410.122)">
      <stop offset="0%" stop-color="#53a0fe"/>
      <stop offset="100%" stop-color="#3023ae"/>
    </linearGradient>
    <radialGradient id="b" cx="0" cy="0" r="1" gradientUnits="userSpaceOnUse" gradientTransform="rotate(-10 711.31 -1123.954) scale(272.012)">
      <stop offset="0%" stop-color="#fff"/>
      <stop offset="100%" stop-color="#e0e0e0"/>
    </radialGradient>
    <linearGradient id="c" x2="1" gradientUnits="userSpaceOnUse" gradientTransform="rotate(155.873 130.838 51.38) scale(153.647)">
      <stop offset="0%" stop-color="#eea3f2"/>
      <stop offset="100%" stop-color="#d969e1"/>
    </linearGradient>
    <linearGradient id="d" x2="1" gradientUnits="userSpaceOnUse" gradientTransform="rotate(155.873 129.457 89.703) scale(153.647)">
      <stop offset="0%" stop-color="#b8ffc9"/>
      <stop offset="100%" stop-color="#82ff98"/>
    </linearGradient>
    <linearGradient id="e" x2="1" gradientUnits="userSpaceOnUse" gradientTransform="rotate(-143.438 164.843 100.393) scale(103.29)">
      <stop offset="0%" stop-color="#30702d"/>
      <stop offset="100%" stop-color="#153d14"/>
    </linearGradient>
  </defs>
</svg>