<svg viewBox="0 0 441 74" xmlns="http://www.w3.org/2000/svg" fill-rule="evenodd" clip-rule="evenodd" stroke-linejoin="round" stroke-miterlimit="1.414">
  <path d="M14.753 32.974c.79-.79 1.77-1.25 2.852-1.324l20.02-1.374c2.028-.14 3.64 1.362 3.64 3.39 0 1.334-.698 2.536-1.753 3.242-.197.205-.416.39-.654.548-.197.206-.416.39-.654.55-.197.204-.416.388-.654.547-.197.205-.417.39-.654.548-.197.21-.417.39-.654.55-.197.21-.417.39-.654.55-.198.21-.417.39-.654.55-.654.68-1.548 1.13-2.542 1.2l-13.217.91-.998 3.79 13.052-.89c2.02-.14 3.64 1.36 3.64 3.39 0 1.34-.7 2.54-1.76 3.24-.2.21-.42.39-.66.55-.2.21-.42.39-.66.55-.2.21-.42.39-.66.55-.2.21-.42.39-.66.55-.2.21-.42.39-.66.55-.2.21-.42.39-.66.55-.2.21-.42.39-.65.55-.66.68-1.55 1.13-2.55 1.2l-10.83.75-1.72 6.49c-.41 1.6-1.22 2.81-2.27 3.54-.21.21-.43.39-.66.55-.21.21-.43.39-.66.55-.2.21-.42.39-.65.55-.21.21-.43.39-.66.55-.21.21-.43.39-.66.55-.21.21-.43.39-.66.55-.2.21-.42.39-.65.55-.79.79-1.77 1.25-2.85 1.32-2.65.18-4.11-1.64-3.23-4.98l7.4-28.03c.41-1.59 1.22-2.8 2.27-3.53.2-.2.42-.39.65-.54.2-.21.42-.39.65-.55.2-.2.42-.39.65-.55.2-.21.42-.39.65-.55.21-.21.42-.39.65-.55.21-.21.43-.39.66-.55.21-.21.42-.39.65-.55zm40.23 5.745c1.095-1.03 2.26-1.58 3.494-1.66 2.028-.14 3.38 1.07 3.38 3.3 0 1.5-.54 2.63-1.738 3.46-.2.19-.41.38-.66.55-.19.19-.41.38-.66.55-.19.19-.41.38-.66.55-.19.19-.41.37-.66.54-.19.19-.41.38-.66.55-.19.19-.41.38-.66.55-.19.19-.41.37-.66.54-.56.56-1.33 1.02-2.35 1.38-.61.21-1.19.45-1.74.71-1.18 1.66-2.09 3.73-2.76 6.27l-1.71 6.31c-.42 1.61-1.23 2.83-2.27 3.55-.21.2-.43.39-.66.54-.21.2-.43.39-.66.55-.21.2-.43.39-.66.55-.21.2-.43.39-.66.55-.21.2-.42.39-.65.55-.21.2-.43.38-.66.54-.21.2-.43.39-.66.55-.77.77-1.73 1.22-2.8 1.3-2.65.18-4.06-1.65-3.17-4.98l5.2-19.65c.42-1.62 1.22-2.83 2.27-3.56.2-.21.42-.39.65-.55.21-.21.43-.39.66-.55.2-.21.42-.39.65-.55.2-.21.42-.39.65-.55.2-.21.42-.39.65-.55.2-.21.42-.39.65-.55.21-.21.42-.39.65-.55.77-.78 1.73-1.23 2.8-1.3 2.16-.15 3.424 1.09 3.4 3.16.2-.19.4-.36.61-.51.215-.2.433-.39.654-.55.21-.2.43-.39.65-.55.22-.2.435-.39.655-.55zm11.364-.03c.404-.43.92-.76 1.49-.98 2.6-1.01 5.46-1.68 8.528-1.89 7.488-.52 11.285 2.34 11.285 7.8 0 1.45-.26 2.82-.63 4.25L83.9 59.8c-.42 1.614-1.227 2.83-2.27 3.555-.21.203-.427.39-.658.55-.206.202-.425.39-.655.55-.2.2-.42.39-.65.543-.206.206-.425.39-.655.55-.205.205-.424.39-.654.55-.206.204-.424.39-.654.546-.207.207-.425.39-.656.55-.773.776-1.733 1.23-2.804 1.3-2.92.2-3.438-1.553-3.39-3.074-.195.17-.39.334-.59.49-.216.19-.434.374-.656.548-2 1.788-4.374 2.86-7.063 3.047-4.835.335-8.11-2.56-8.11-6.93 0-3.43 1.487-6.155 3.9-8.022.21-.19.426-.374.652-.55.21-.19.423-.372.65-.547.21-.19.43-.37.656-.55.21-.19.43-.37.656-.545.21-.19.43-.37.65-.54.21-.19.42-.37.65-.55.21-.19.43-.37.65-.54 2.17-1.97 5.26-3.14 8.76-3.38.33-.02.67-.04.99-.05-.79-.24-1.85-.33-3.21-.24-1.61.11-3.49.5-4.84.96-.47.14-.94.27-1.3.3-1.77.13-3.12-1.13-3.12-2.95 0-1.22.63-2.19 1.55-2.81.19-.2.41-.39.65-.54.19-.2.41-.39.65-.55.19-.2.41-.39.65-.55.19-.2.41-.38.65-.54.2-.2.42-.39.66-.55.19-.2.41-.39.65-.55.19-.2.41-.39.65-.54zm54.91-3.31c2.127-1.89 4.722-3.17 7.784-3.38 5-.35 8.06 2.51 8.06 7.56 0 1.56-.46 3.56-.93 5.36l-3.01 11.49c-.42 1.61-1.22 2.83-2.27 3.55-.2.2-.42.39-.65.55-.2.2-.42.38-.65.54-.2.2-.42.39-.65.54-.2.2-.42.39-.65.55-.2.2-.42.39-.65.54-.2.2-.42.39-.65.55-.21.2-.42.39-.66.55-.77.77-1.73 1.22-2.8 1.3-2.65.18-4.05-1.65-3.17-4.99l2.81-10.6c.21-.8.37-1.85.37-2.52 0-2.24-1.25-3.35-3.69-3.18l-.18.01c-.2.49-.37 1.02-.52 1.57l-3.23 12.19c-.42 1.61-1.22 2.83-2.27 3.55-.2.21-.42.39-.65.55-.2.2-.42.39-.65.55-.21.2-.42.39-.65.54-.2.21-.42.39-.65.55-.2.2-.42.39-.65.55-.21.2-.42.39-.65.55-.2.2-.42.39-.65.55-.77.77-1.73 1.22-2.8 1.3-2.65.18-4.05-1.65-3.17-4.99l2.81-10.6c.21-.79.37-1.85.37-2.52 0-2.24-1.25-3.35-3.69-3.18l-.18.02c-.2.49-.37 1.01-.51 1.57L98.7 58.73c-.42 1.61-1.23 2.83-2.27 3.55-.21.2-.43.39-.66.54-.2.21-.42.39-.65.55-.2.2-.42.39-.65.55-.21.2-.43.39-.66.54-.2.207-.42.39-.65.55-.2.206-.42.39-.65.55-.21.204-.43.39-.66.546-.77.78-1.73 1.23-2.8 1.3-2.65.18-4.05-1.65-3.17-4.98L91 42.8c.42-1.59 1.2-2.79 2.25-3.52.21-.2.43-.39.66-.55.205-.2.424-.39.655-.55.207-.2.425-.39.656-.55.2-.2.42-.39.65-.55.21-.2.43-.38.66-.54.2-.207.42-.39.65-.55.21-.205.42-.388.66-.55.8-.798 1.81-1.266 2.98-1.346 2.25-.154 3.49 1.167 3.53 2.89l.38-.31c.22-.18.43-.37.66-.54 1.75-1.52 3.76-2.81 6.36-2.99 3.63-.25 6.07 1.39 7.23 4.15.13-.11.26-.22.39-.32.21-.19.43-.374.65-.55.21-.19.43-.37.66-.55.22-.19.43-.37.66-.55zm26.448-1.07c2.705-2.38 6.17-4.01 10.196-4.29 7.23-.5 11.39 3.9 11.39 10.08 0 .88-.1 1.93-.31 2.88-.33 1.49-.94 2.55-1.89 3.15-.2.21-.41.39-.65.55-.19.21-.41.39-.65.54-.19.21-.41.39-.65.55-.19.21-.41.39-.65.55-.19.21-.41.39-.65.54-.19.21-.41.39-.65.54-.19.21-.41.39-.65.55-.23.25-.49.46-.79.63.05-.01.09-.01.14-.01 1.66-.12 2.96 1.04 2.96 2.81 0 1.09-.62 2.12-1.51 2.75l-.13.09c-.16.17-.33.32-.52.46l-.12.09c-.16.17-.34.32-.53.45l-.12.09c-.16.17-.34.32-.53.45l-.12.09c-.16.17-.34.33-.53.46l-.12.09c-.16.17-.34.33-.53.46l-.13.09c-.16.17-.34.33-.53.46l-.12.09c-.16.17-.34.33-.53.46l-.12.09c-.16.17-.34.32-.52.46-2.44 1.78-5.56 2.88-9.05 3.12-8.01.55-12.89-3.8-12.89-11.49 0-5.07 2.59-10.52 7-14.04.22-.19.43-.37.66-.55.21-.19.43-.37.65-.55.21-.19.43-.37.65-.55.22-.19.43-.37.66-.55.21-.19.43-.37.66-.55.21-.19.43-.37.65-.55.218-.19.43-.37.66-.55zm39.773-4.69c1.096-1.02 2.26-1.58 3.495-1.66 2.028-.14 3.38 1.07 3.38 3.3 0 1.5-.54 2.63-1.738 3.46-.19.19-.41.38-.654.55-.19.19-.4.37-.65.54-.19.19-.41.38-.65.55-.19.19-.41.38-.65.55-.19.19-.41.37-.65.54-.19.19-.41.38-.65.55-.19.19-.41.38-.65.55-.55.56-1.32 1.02-2.34 1.38-.61.21-1.19.45-1.74.71-1.17 1.67-2.08 3.73-2.75 6.28l-1.72 6.3c-.42 1.61-1.22 2.83-2.27 3.55-.2.2-.42.39-.65.55-.21.2-.42.39-.65.54-.2.2-.42.39-.65.55-.21.2-.43.39-.66.54-.2.2-.42.39-.65.55-.21.2-.42.39-.65.55-.2.2-.42.39-.65.54-.77.77-1.73 1.22-2.8 1.3-2.65.18-4.05-1.65-3.17-4.98l5.2-19.65c.42-1.62 1.23-2.83 2.27-3.56.21-.2.43-.39.66-.55.21-.21.43-.39.66-.55.2-.21.42-.39.65-.55.21-.21.43-.39.66-.55.21-.21.43-.39.66-.55.21-.21.42-.39.66-.55.21-.21.42-.39.65-.55.77-.78 1.73-1.23 2.8-1.3 2.16-.15 3.43 1.09 3.4 3.16.2-.19.4-.35.61-.51.22-.2.43-.38.65-.55.22-.2.44-.39.66-.55.22-.2.44-.39.66-.55zm30.923-8.88c2.66-2.37 6.37-3.84 10.38-4.11 5.67-.39 8.74 1.01 11.08 2.46 1.09.7 1.87 1.59 1.87 3.2 0 1.43-.73 2.69-1.83 3.44-.2.2-.41.38-.65.54-.2.2-.42.39-.65.55-.2.2-.42.38-.65.54-.19.2-.41.38-.65.55-.19.2-.41.38-.65.55-.19.2-.41.38-.65.54-.2.2-.42.38-.65.54-.71.73-1.69 1.2-2.77 1.28-.83.05-1.61-.1-2.18-.53-2.39-1.71-4.47-2.45-7.44-2.25h-.05c.17 1.68 1.74 2.42 6.38 4.01 4.99 1.69 8.73 3.93 8.73 9.23 0 4.01-1.87 7.27-4.76 9.55-.21.18-.43.37-.65.54-.21.19-.43.37-.65.55-.21.19-.43.37-.65.55-.21.19-.43.37-.65.55-.21.19-.43.37-.65.55-.21.18-.43.37-.65.54-.21.19-.43.37-.65.55-2.68 2.39-6.4 3.83-10.35 4.11-4.32.29-9.72-.27-13.47-3.24-.88-.67-1.56-1.82-1.56-3.22 0-1.52.73-2.86 1.88-3.63.2-.21.42-.39.65-.55.2-.21.42-.39.65-.55.2-.21.42-.39.66-.55.2-.21.42-.39.65-.55.2-.21.42-.39.66-.55.2-.21.42-.39.65-.55.2-.21.42-.39.66-.55.69-.71 1.62-1.17 2.68-1.24 1.1-.08 2.03.43 2.55.81 3.07 2.34 5.36 3.17 8.95 2.92l.32-.03c-.12-1.62-1.51-2.56-6.18-4.12-4.73-1.6-8.94-3.86-8.94-9.22 0-3.92 1.85-7.17 4.74-9.45.21-.19.43-.37.66-.55.21-.19.43-.37.65-.55.21-.19.43-.37.66-.55.21-.19.43-.37.657-.55.21-.19.43-.37.65-.55.21-.19.43-.37.656-.55.21-.183.43-.37.65-.543zm59.57 4.63c2.73-2.4 6.18-4.01 9.93-4.27 8.27-.57 13.42 4.54 13.42 11.97 0 5.1-2.69 10.19-6.84 13.5-.21.19-.43.37-.65.55-.21.18-.43.37-.65.54-.21.18-.43.37-.65.54-.21.19-.43.37-.65.55-.21.19-.43.37-.65.55-.21.18-.43.37-.65.54-.21.19-.43.37-.65.55-2.73 2.4-6.17 4.01-9.93 4.27-6.9.47-11.63-3.01-13-8.49-.12.89-.55 1.59-1.16 2.16-.23.2-.46.4-.69.58-.22.19-.43.37-.65.55-.21.19-.43.37-.65.55-.22.19-.44.37-.66.55-.22.19-.43.37-.65.55-.22.19-.43.37-.65.55-.22.19-.44.37-.65.55-.22.19-.44.37-.66.54-2.74 2.4-5.59 3.62-9.31 3.88-7.59.52-13-4.1-13-11.69 0-5.46 2.71-10.46 6.79-13.73.22-.19.43-.37.66-.55.22-.19.43-.37.66-.55.22-.19.43-.37.66-.55.21-.19.43-.37.65-.55.21-.19.43-.37.65-.55.22-.19.43-.37.66-.55.216-.19.43-.37.656-.55 2.84-2.5 6.44-4.12 10.29-4.39 5.15-.35 7.857 1.44 9.417 2.84.78.67 1.45 1.61 1.45 2.96 0 1.31-.7 2.53-1.78 3.25-.2.21-.42.39-.653.55-.2.21-.42.39-.66.55-.197.21-.41.39-.65.55-.2.21-.42.39-.66.55-.2.2-.42.39-.654.55-.2.2-.413.39-.65.55-.2.2-.414.39-.65.55-.68.7-1.62 1.17-2.673 1.24-1.14.08-1.92-.23-2.6-.97-1.19-1.37-2.8-2.14-5.09-1.99-.41.03-.82.1-1.22.22-.96 1.65-1.55 3.61-1.55 5.62 0 3.59 2.4 5.71 5.46 5.5 1.62-.11 3.12-.63 4.79-1.89.62-.46 1.458-.988 2.34-1.048 1.24-.09 2.26.512 2.787 1.48-.04-.456-.06-.92-.06-1.39 0-5.1 2.7-10.19 6.84-13.506.22-.19.44-.37.66-.55.21-.19.43-.37.65-.55.21-.19.43-.37.652-.55.21-.19.43-.37.65-.55.21-.19.43-.37.654-.55.212-.19.43-.37.653-.55.213-.19.43-.37.653-.55zm36.41-11.89c.77-.78 1.74-1.23 2.81-1.3 2.65-.19 4.06 1.64 3.17 4.98l-.62 2.28 2.65-.18c1.82-.13 3.28 1.23 3.28 3.15 0 1.29-.65 2.41-1.64 3.05-.19.21-.41.39-.65.55-.19.21-.41.39-.65.54-.19.21-.41.39-.65.55-.19.2-.41.39-.65.54-.19.21-.41.39-.65.54-.19.21-.41.39-.65.55-.19.21-.41.39-.65.55-.59.62-1.4 1.03-2.29 1.09l-.31.02-2.04 7.81c-.1.42-.21.95-.21 1.26 0 1.04.68 1.61 1.98 1.52l.63-.04c1.56-.11 2.81.79 2.81 2.77 0 1.49-.63 2.47-1.57 3.1-.2.21-.42.39-.66.55-.19.21-.41.39-.65.55-.19.21-.41.39-.65.55-.19.2-.41.39-.65.54-.19.21-.41.39-.65.55-.19.2-.41.39-.65.54-.192.2-.41.39-.652.54-.31.33-.68.6-1.1.81-1.456.72-2.91.98-4.63 1.1-4.886.33-7.226-1.9-7.226-4.97 0-1.15.21-2.25.52-3.52l3.38-12.87c-1.35-.12-2.91-1.1-2.91-3.18 0-1.29.657-2.42 1.638-3.06.197-.21.41-.39.65-.55.2-.21.42-.4.658-.55.2-.21.42-.39.655-.55.2-.21.42-.4.655-.55.2-.21.42-.4.66-.55.15-.16.32-.31.5-.45l.26-.96c.42-1.615 1.22-2.83 2.27-3.557.2-.21.42-.39.65-.55.2-.21.42-.39.65-.55.2-.21.42-.39.65-.55.203-.208.422-.39.652-.55.2-.207.42-.39.65-.55.202-.2.42-.39.65-.55.2-.2.42-.387.65-.546zm21.42-4.44c.77-.78 1.74-1.23 2.81-1.3 2.66-.19 4.06 1.64 3.18 4.98l-7.9 29.92c-.42 1.61-1.22 2.83-2.27 3.55-.2.2-.42.39-.65.55-.2.2-.42.39-.65.54-.2.21-.42.39-.65.55-.2.2-.42.39-.65.55-.2.2-.42.39-.65.55-.2.2-.42.39-.65.54-.2.2-.42.39-.65.55-.77.77-1.73 1.22-2.8 1.3-2.65.18-4.05-1.65-3.17-4.98l7.9-29.92c.42-1.62 1.22-2.83 2.27-3.56.2-.21.42-.39.65-.55.21-.21.43-.39.66-.55.21-.21.43-.39.66-.55.21-.21.43-.39.66-.55.21-.21.43-.39.66-.55.2-.21.42-.39.65-.55.2-.21.42-.39.65-.55zM72.35 59.29c.254-.49.458-1 .607-1.517l.21-.742c-1.35-.42-3.273-.76-5.2-.63-.14.01-.28.02-.42.04-.01.11-.012.22-.012.33 0 1.72 1.405 2.87 3.64 2.72.4-.02.796-.09 1.18-.19zm275.218-39.9c.404-.43.92-.76 1.49-.973 2.6-1.02 5.46-1.68 8.528-1.89 7.49-.52 11.288 2.34 11.288 7.8 0 1.453-.26 2.823-.622 4.252l-3.12 11.91c-.42 1.61-1.223 2.83-2.27 3.55-.205.2-.423.39-.654.55-.21.2-.43.39-.66.55-.205.2-.424.39-.654.54-.206.2-.425.39-.655.55-.21.2-.43.39-.66.55-.21.2-.43.39-.66.54-.21.2-.43.39-.66.55-.77.77-1.73 1.22-2.8 1.3-2.92.2-3.44-1.56-3.39-3.08-.2.17-.39.33-.59.49-.22.19-.44.37-.66.54-2 1.79-4.38 2.86-7.07 3.04-4.84.33-8.11-2.56-8.11-6.93 0-3.44 1.48-6.16 3.9-8.03.21-.19.42-.38.65-.55.21-.19.42-.38.65-.55.21-.19.42-.38.65-.55.21-.19.43-.37.65-.55.21-.19.43-.38.65-.55.21-.19.43-.37.65-.55.21-.19.43-.37.65-.55 2.17-1.97 5.27-3.15 8.77-3.39.33-.02.67-.04.99-.05-.79-.25-1.85-.34-3.21-.25-1.61.11-3.49.5-4.84.95-.47.14-.93.27-1.3.3-1.77.12-3.12-1.14-3.12-2.96 0-1.22.64-2.19 1.56-2.8.19-.21.41-.39.65-.55.19-.21.41-.39.65-.55.19-.21.41-.39.65-.55.19-.21.41-.39.65-.55.19-.21.41-.39.65-.55.2-.21.42-.39.66-.55.19-.21.41-.39.65-.55zm38.782-2.324c1.83-1.603 4.058-2.995 6.752-3.18 4.99-.343 8.214 2.504 8.214 7.548 0 1.56-.468 3.568-.936 5.368l-3.017 11.49c-.42 1.615-1.22 2.832-2.27 3.556-.2.206-.42.39-.65.548-.204.206-.423.39-.653.55-.205.205-.424.388-.654.547-.205.206-.424.39-.654.55-.207.205-.426.388-.656.547-.2.206-.42.39-.65.548-.203.206-.42.39-.652.55-.77.774-1.73 1.226-2.8 1.3-2.65.18-4.054-1.646-3.17-4.983l2.81-10.593c.206-.794.362-1.845.362-2.52 0-2.237-1.404-3.336-3.848-3.17-.095.008-.188.016-.28.026-.204.492-.38 1.016-.52 1.567l-3.225 12.18c-.42 1.614-1.226 2.832-2.27 3.556-.21.21-.426.39-.657.55-.206.21-.425.39-.655.55-.2.21-.42.39-.65.55-.2.21-.42.39-.65.55-.2.21-.42.39-.65.55-.2.21-.42.39-.65.55-.2.21-.42.39-.65.55-.77.78-1.73 1.23-2.8 1.3-2.65.18-4.05-1.64-3.17-4.98l5.15-19.64c.42-1.58 1.2-2.79 2.25-3.52.21-.2.43-.39.66-.55.21-.2.43-.38.66-.54.21-.2.43-.39.66-.55.21-.2.42-.38.66-.55.2-.2.42-.38.65-.54.21-.2.43-.39.66-.55.2-.2.42-.39.65-.55.8-.8 1.81-1.26 2.98-1.35 2.26-.15 3.5 1.18 3.54 2.91l.19-.15c.22-.18.43-.37.66-.54zm47.524-14.75c.77-.776 1.73-1.227 2.8-1.3 2.654-.183 4.058 1.645 3.174 4.98l-7.85 29.92c-.41 1.585-1.19 2.788-2.25 3.52-.2.204-.42.387-.65.547-.205.205-.424.388-.655.55-.203.203-.422.387-.653.547-.206.205-.424.388-.655.548-.206.205-.424.388-.656.55-.21.203-.42.387-.66.547-.21.205-.43.388-.66.548-.8.8-1.81 1.268-2.98 1.348-2.24.16-3.44-1.06-3.48-2.97-.15.13-.29.25-.44.37-.22.19-.44.38-.66.55-2.03 1.79-4.11 2.86-6.76 3.05-6.09.41-10.72-3.69-10.72-11.23 0-6.11 2.88-11.34 6.93-14.57.21-.19.43-.37.65-.55.21-.19.43-.37.65-.55.22-.19.43-.37.66-.55.21-.19.43-.37.65-.55.22-.19.43-.37.65-.55.21-.19.43-.37.65-.55.22-.18.43-.37.66-.54 2.63-2.32 5.85-3.76 9.11-3.99 2.24-.15 4 .21 5.43.94l.83-3.22c.42-1.61 1.22-2.83 2.27-3.55.2-.2.42-.39.65-.54.2-.2.42-.39.65-.55.2-.2.42-.39.65-.54.2-.2.42-.39.65-.55.21-.2.42-.39.65-.55.21-.2.42-.39.65-.54.21-.21.42-.39.65-.55zM160.19 51.106c-.08.008-.16.015-.24.02l-9.36.643c1.03.85 2.527 1.26 4.557 1.12 1.72-.11 3.28-.74 4.32-1.38.22-.14.468-.27.726-.4zM286.87 43.3c.942-1.647 1.464-3.49 1.464-5.093 0-4.06-2.444-6.18-6.032-5.93-.45.03-.89.1-1.31.22-.942 1.64-1.463 3.49-1.463 5.09 0 4.05 2.44 6.17 6.03 5.93.45-.03.89-.11 1.31-.22zm66.69-3.31c.253-.49.46-1 .606-1.517l.208-.742c-1.352-.42-3.276-.76-5.2-.63-.143.01-.284.02-.423.04-.01.11-.01.22-.01.33 0 1.72 1.41 2.87 3.64 2.72.4-.02.8-.09 1.18-.19zM421 34.02c.96-1.62 1.544-3.535 1.544-5.544 0-3.536-2.496-5.757-5.98-5.518-.52.036-1.035.133-1.54.286-.93 1.62-1.495 3.562-1.495 5.67 0 3.64 2.28 5.668 5.82 5.425.55-.03 1.11-.14 1.65-.31zm-264.92 8.403c-.663-1.1-1.962-1.765-4.036-1.623-.61.042-1.202.152-1.77.323-.31.55-.576 1.137-.797 1.754l6.6-.46z" fill="#00b01d"/>
  <path d="M18.26 31.102c-2.08.143-3.797 1.716-4.473 4.31L6.403 63.43c-.884 3.336.572 5.16 3.224 4.978 2.08-.143 3.796-1.716 4.472-4.31l2.8-10.593 14.97-1.028c2.03-.14 3.64-1.862 3.64-3.89s-1.61-3.53-3.64-3.39l-13.05.896 2.08-7.89 17.37-1.192c2.02-.14 3.64-1.86 3.64-3.89s-1.62-3.53-3.64-3.39l-20.01 1.38zm34.63 10.57c.677-2.853-.623-4.688-3.223-4.51-2.08.143-3.744 1.713-4.42 4.308l-5.2 19.648c-.884 3.337.52 5.165 3.172 4.983 2.08-.14 3.74-1.71 4.42-4.3l1.71-6.3c1.66-6.3 4.78-9.63 9.72-11.38 2.39-.84 3.43-2.21 3.43-4.29 0-2.23-1.35-3.44-3.38-3.3-2.39.17-4.53 2.08-6.4 5.8l.15-.63zm27.25 21.895c2.08-.143 3.743-1.713 4.42-4.307l3.12-11.915c.363-1.43.623-2.798.623-4.254 0-5.46-3.796-8.32-11.284-7.8-3.07.21-5.93.88-8.53 1.89-1.35.51-2.39 1.68-2.39 3.24 0 1.82 1.35 3.08 3.12 2.96.36-.02.83-.16 1.3-.29 1.35-.45 3.22-.84 4.83-.95 3.9-.26 5.25 1 5.25 2.92 0 .83-.16 1.47-.31 2.1l-.11.37c-2.34-.56-4.84-.91-7.85-.71-6.76.47-12.02 4.42-12.02 10.86 0 4.37 3.27 7.27 8.11 6.93 3.27-.22 6.08-1.77 8.32-4.31-.11 1.57.31 3.52 3.38 3.31zm28.807-7.177c-.884 3.336.52 5.164 3.172 4.982 2.08-.143 3.74-1.713 4.42-4.307l3.22-12.182c.88-3.388 2.81-5.756 5.93-5.97 2.44-.168 3.69.942 3.69 3.178 0 .68-.16 1.73-.37 2.53l-2.81 10.6c-.89 3.34.52 5.17 3.17 4.98 2.08-.14 3.74-1.71 4.42-4.3l3.01-11.49c.46-1.8.93-3.81.93-5.37 0-5.04-3.07-7.9-8.06-7.55-4.21.29-7.54 2.6-9.99 5.73-1.09-2.99-3.59-4.8-7.39-4.54-3.12.22-5.41 2.04-7.39 3.94 0-1.77-1.25-3.14-3.54-2.98-2.24.16-3.9 1.73-4.58 4.32l-5.12 19.62c-.89 3.34.52 5.17 3.17 4.98 2.08-.14 3.74-1.71 4.42-4.3l3.23-12.18c.88-3.38 2.8-5.75 5.92-5.97 2.44-.16 3.69.95 3.69 3.18 0 .68-.16 1.73-.37 2.52l-2.8 10.59zm46.852-4.048c-4.16.286-6.09-1.766-6.35-5.024l16.38-1.124c2.08-.143 3.27-1.42 3.79-3.745.21-.95.31-2 .31-2.89 0-6.19-4.16-10.59-11.39-10.09-9.99.68-16.54 9.71-16.54 17.77 0 7.69 4.88 12.04 12.89 11.49 3.48-.24 6.6-1.34 9.04-3.12.88-.64 1.51-1.67 1.51-2.76 0-1.77-1.3-2.93-2.97-2.82-.84.06-1.72.48-2.4.89-1.04.64-2.6 1.27-4.32 1.39zm29.58-19.762c.67-2.855-.63-4.69-3.23-4.51-2.08.142-3.75 1.712-4.42 4.306l-5.2 19.65c-.89 3.336.52 5.163 3.17 4.98 2.08-.14 3.74-1.712 4.42-4.306l1.71-6.306c1.66-6.302 4.78-9.636 9.72-11.38 2.39-.84 3.43-2.21 3.43-4.29 0-2.237-1.36-3.444-3.38-3.305-2.4.16-4.53 2.07-6.4 5.79l.15-.64zm39.15 14.264c-3.59.247-5.88-.584-8.95-2.922-.52-.38-1.46-.888-2.55-.813-2.24.15-3.9 2.03-3.9 4.32 0 1.4.67 2.55 1.56 3.22 3.74 2.97 9.15 3.53 13.47 3.23 7.64-.53 14.45-5.47 14.45-13.11 0-5.31-3.75-7.54-8.74-9.23-4.94-1.69-6.4-2.42-6.4-4.35 0-1.82 1.92-3.83 5.3-4.06 2.96-.21 5.04.53 7.43 2.24.57.43 1.35.58 2.18.52 2.18-.15 3.95-1.94 3.95-4.17 0-1.61-.78-2.5-1.88-3.2-2.34-1.45-5.41-2.85-11.08-2.46-7.8.53-14.46 5.56-14.46 13 0 5.35 4.21 7.61 8.94 9.21 4.88 1.64 6.18 2.59 6.18 4.36 0 2.28-2.34 3.95-5.56 4.17zM71.82 58.938c-2.237.153-3.64-.998-3.64-2.714 0-2.704 2.39-4.532 5.667-4.757 1.924-.132 3.848.204 5.2.63l-.208.743c-.89 3.077-3.75 5.873-7.02 6.098zm194.635-11.122c.728-.674 1.196-1.538 1.196-2.682 0-1.82-1.35-3.183-3.17-3.06-.88.062-1.71.587-2.34 1.046-1.66 1.258-3.17 1.778-4.78 1.888-3.07.21-5.46-1.913-5.46-5.5 0-5.15 3.85-9.937 8.01-10.222 2.29-.158 3.9.616 5.1 1.99.68.733 1.46 1.044 2.6.965 2.13-.14 3.8-1.92 3.8-3.95 0-1.35-.67-2.29-1.45-2.97-1.56-1.4-4.26-3.19-9.41-2.83-8.89.61-16.43 8.46-16.43 17.56 0 7.59 5.41 12.21 13 11.69 3.75-.25 6.61-1.49 9.36-3.91zm19.396 1.945c8.95-.61 16.12-8.9 16.12-17.22 0-7.43-5.14-12.54-13.41-11.97-8.94.62-16.12 8.91-16.12 17.23 0 7.44 5.15 12.55 13.42 11.98zm26.63-30.32l-1.45.1c-1.82.13-3.27 1.68-3.27 3.61 0 2.08 1.56 3.07 2.91 3.18l-3.39 12.87c-.31 1.27-.52 2.38-.52 3.52 0 3.07 2.34 5.3 7.23 4.97 1.72-.12 3.17-.37 4.63-1.1 1.2-.6 2.03-1.64 2.03-3.36 0-1.97-1.25-2.87-2.81-2.77l-.62.05c-1.3.09-1.97-.49-1.97-1.53 0-.31.1-.84.21-1.26l3.12-11.91 4.47-.31c1.82-.13 3.27-1.68 3.27-3.61s-1.45-3.28-3.27-3.15l-2.65.19.62-2.28c.89-3.34-.52-5.16-3.17-4.98-2.08.14-3.74 1.71-4.42 4.31l-.93 3.5zm29.95-7.25c.89-3.33-.52-5.16-3.17-4.98-2.08.15-3.74 1.72-4.42 4.31l-7.9 29.92c-.88 3.34.52 5.17 3.18 4.99 2.08-.14 3.75-1.71 4.42-4.31l7.91-29.92zm18.93 32.09c2.08-.14 3.75-1.71 4.42-4.31l3.12-11.91c.37-1.43.63-2.8.63-4.25 0-5.46-3.79-8.32-11.28-7.8-3.07.21-5.93.88-8.53 1.89-1.35.51-2.39 1.67-2.39 3.23 0 1.82 1.35 3.08 3.12 2.96.37-.02.83-.16 1.3-.29 1.35-.45 3.23-.84 4.84-.95 3.9-.26 5.26 1 5.26 2.92 0 .83-.15 1.47-.31 2.1l-.1.37c-2.34-.57-4.83-.92-7.85-.71-6.76.47-12.01 4.41-12.01 10.86 0 4.37 3.28 7.27 8.11 6.93 3.28-.22 6.09-1.77 8.32-4.31-.1 1.57.32 3.52 3.38 3.31zm21.27-29.95c-2.23.16-3.9 1.73-4.57 4.32l-5.15 19.64c-.88 3.34.52 5.17 3.17 4.99 2.08-.14 3.75-1.71 4.42-4.31l3.23-12.18c.89-3.39 2.91-5.76 6.03-5.97 2.45-.17 3.85.93 3.85 3.17 0 .68-.15 1.73-.36 2.52l-2.8 10.59c-.88 3.34.52 5.16 3.17 4.98 2.08-.14 3.75-1.71 4.42-4.3l3.02-11.49c.47-1.8.94-3.81.94-5.37 0-5.04-3.22-7.89-8.21-7.55-3.12.21-5.62 2.05-7.59 3.95 0-1.77-1.25-3.14-3.54-2.98zm45.44 25.37c2.24-.15 3.9-1.72 4.58-4.32l7.85-29.93c.89-3.33-.52-5.16-3.17-4.98-2.08.14-3.74 1.72-4.42 4.31l-2.75 10.64c-1.82-2.63-4.36-4.27-8.73-3.97-7.85.54-15.39 8.13-15.39 18.01 0 7.54 4.63 11.65 10.71 11.23 3.12-.21 5.46-1.67 7.85-4.07 0 1.98 1.2 3.25 3.49 3.09zm-141.85 3.28c-3.58.25-6.03-1.87-6.03-5.93 0-3.95 3.17-9.37 8.01-9.7 3.59-.24 6.04 1.88 6.04 5.93 0 3.95-3.17 9.37-8.01 9.7zm66.82-3.33c-2.23.16-3.64-1-3.64-2.71 0-2.7 2.4-4.53 5.67-4.75 1.93-.13 3.85.2 5.2.63l-.21.74c-.88 3.08-3.74 5.87-7.02 6.1zm66.98-5.84c-3.53.25-5.82-1.78-5.82-5.42 0-5.61 4.01-10.05 8.27-10.34 3.49-.24 5.98 1.98 5.98 5.52 0 5.31-4.05 9.95-8.42 10.25zm-269.89 8.53c1.3-3.62 4.22-6.21 7.8-6.46 3.23-.22 4.58 1.51 4.58 3.8 0 .68-.1 1.31-.26 1.84l-12.11.83z" fill="#80ff97"/>
</svg>