<?xml version="1.0" encoding="UTF-8" standalone="no"?><!DOCTYPE svg PUBLIC "-//W3C//DTD SVG 1.1//EN" "http://www.w3.org/Graphics/SVG/1.1/DTD/svg11.dtd"><svg width="100%" height="100%" viewBox="0 0 441 74" version="1.1" xmlns="http://www.w3.org/2000/svg" xmlns:xlink="http://www.w3.org/1999/xlink" xml:space="preserve" style="fill-rule:evenodd;clip-rule:evenodd;stroke-linejoin:round;stroke-miterlimit:1.41421;"><g><path d="M14.753,32.974c0.789,-0.789 1.771,-1.25 2.852,-1.324l20.02,-1.374c2.028,-0.139 3.64,1.362 3.64,3.39c0,1.334 -0.698,2.536 -1.753,3.242c-0.197,0.205 -0.416,0.389 -0.654,0.548c-0.197,0.206 -0.416,0.39 -0.654,0.549c-0.197,0.205 -0.416,0.389 -0.654,0.548c-0.197,0.205 -0.417,0.389 -0.654,0.548c-0.197,0.206 -0.417,0.39 -0.654,0.549c-0.197,0.205 -0.417,0.389 -0.654,0.548c-0.198,0.205 -0.417,0.389 -0.654,0.548c-0.654,0.68 -1.548,1.129 -2.542,1.197l-13.217,0.907l-0.998,3.789l13.052,-0.896c2.028,-0.139 3.64,1.362 3.64,3.39c0,1.334 -0.698,2.536 -1.753,3.242c-0.197,0.205 -0.416,0.389 -0.654,0.548c-0.197,0.206 -0.416,0.39 -0.654,0.549c-0.197,0.205 -0.416,0.389 -0.654,0.548c-0.197,0.205 -0.417,0.389 -0.654,0.548c-0.197,0.206 -0.417,0.39 -0.654,0.549c-0.197,0.205 -0.417,0.389 -0.654,0.548c-0.198,0.205 -0.417,0.389 -0.654,0.548c-0.654,0.68 -1.548,1.129 -2.542,1.197l-10.831,0.743l-1.72,6.491c-0.417,1.597 -1.227,2.808 -2.275,3.535c-0.205,0.206 -0.424,0.389 -0.654,0.549c-0.205,0.205 -0.424,0.388 -0.654,0.548c-0.205,0.206 -0.424,0.389 -0.654,0.548c-0.205,0.206 -0.424,0.389 -0.654,0.549c-0.206,0.205 -0.424,0.388 -0.654,0.548c-0.206,0.206 -0.424,0.389 -0.654,0.548c-0.206,0.206 -0.424,0.389 -0.654,0.549c-0.79,0.789 -1.772,1.249 -2.852,1.323c-2.652,0.182 -4.108,-1.642 -3.224,-4.978l7.384,-28.015c0.416,-1.598 1.227,-2.808 2.274,-3.536c0.205,-0.205 0.424,-0.389 0.654,-0.548c0.205,-0.206 0.424,-0.389 0.654,-0.549c0.205,-0.205 0.424,-0.388 0.654,-0.548c0.206,-0.205 0.424,-0.389 0.654,-0.548c0.206,-0.206 0.424,-0.389 0.654,-0.549c0.206,-0.205 0.424,-0.388 0.654,-0.548c0.206,-0.205 0.425,-0.389 0.655,-0.548ZM54.982,38.719c1.096,-1.023 2.261,-1.573 3.495,-1.658c2.028,-0.139 3.38,1.068 3.38,3.304c0,1.499 -0.541,2.63 -1.738,3.46c-0.191,0.196 -0.409,0.378 -0.654,0.548c-0.192,0.196 -0.409,0.378 -0.655,0.548c-0.191,0.196 -0.408,0.379 -0.654,0.549c-0.191,0.196 -0.408,0.378 -0.654,0.548c-0.191,0.196 -0.409,0.379 -0.654,0.548c-0.191,0.196 -0.409,0.379 -0.654,0.549c-0.191,0.196 -0.409,0.378 -0.654,0.548c-0.553,0.566 -1.327,1.022 -2.348,1.38c-0.606,0.214 -1.185,0.452 -1.737,0.716c-1.172,1.668 -2.082,3.73 -2.754,6.277l-1.716,6.306c-0.421,1.613 -1.224,2.831 -2.271,3.555c-0.205,0.206 -0.423,0.389 -0.654,0.548c-0.205,0.206 -0.424,0.389 -0.654,0.549c-0.205,0.206 -0.424,0.389 -0.654,0.548c-0.205,0.206 -0.424,0.389 -0.654,0.548c-0.205,0.206 -0.424,0.389 -0.654,0.549c-0.206,0.206 -0.424,0.389 -0.654,0.548c-0.206,0.206 -0.424,0.389 -0.655,0.548c-0.772,0.775 -1.732,1.227 -2.803,1.301c-2.652,0.182 -4.056,-1.646 -3.172,-4.982l5.2,-19.649c0.42,-1.614 1.223,-2.831 2.27,-3.555c0.205,-0.206 0.424,-0.39 0.654,-0.549c0.205,-0.206 0.424,-0.389 0.654,-0.548c0.205,-0.206 0.424,-0.389 0.654,-0.548c0.205,-0.206 0.424,-0.39 0.654,-0.549c0.206,-0.206 0.424,-0.389 0.655,-0.548c0.205,-0.206 0.423,-0.389 0.654,-0.548c0.205,-0.206 0.423,-0.39 0.654,-0.549c0.772,-0.775 1.733,-1.227 2.804,-1.3c2.161,-0.149 3.424,1.095 3.4,3.159c0.2,-0.185 0.402,-0.353 0.607,-0.506c0.215,-0.201 0.433,-0.384 0.654,-0.548c0.215,-0.201 0.433,-0.384 0.654,-0.548c0.216,-0.201 0.434,-0.384 0.654,-0.549ZM66.347,38.693c0.404,-0.428 0.919,-0.76 1.49,-0.974c2.6,-1.011 5.46,-1.675 8.528,-1.886c7.488,-0.514 11.284,2.346 11.284,7.806c0,1.456 -0.26,2.826 -0.624,4.255l-3.12,11.914c-0.421,1.614 -1.224,2.831 -2.271,3.555c-0.205,0.206 -0.423,0.389 -0.654,0.548c-0.205,0.206 -0.424,0.389 -0.654,0.549c-0.205,0.206 -0.424,0.389 -0.654,0.548c-0.205,0.206 -0.424,0.389 -0.654,0.548c-0.205,0.206 -0.424,0.39 -0.654,0.549c-0.206,0.206 -0.424,0.389 -0.654,0.548c-0.206,0.206 -0.424,0.389 -0.655,0.548c-0.772,0.776 -1.732,1.228 -2.803,1.301c-2.92,0.2 -3.438,-1.554 -3.392,-3.075c-0.193,0.171 -0.39,0.335 -0.59,0.492c-0.214,0.191 -0.432,0.374 -0.654,0.548c-2.001,1.787 -4.375,2.861 -7.064,3.046c-4.836,0.332 -8.112,-2.563 -8.112,-6.931c0,-3.433 1.488,-6.157 3.899,-8.024c0.21,-0.19 0.428,-0.373 0.654,-0.548c0.21,-0.19 0.428,-0.373 0.655,-0.548c0.209,-0.191 0.427,-0.374 0.654,-0.549c0.209,-0.19 0.428,-0.373 0.654,-0.548c0.209,-0.19 0.428,-0.373 0.654,-0.548c0.21,-0.191 0.428,-0.374 0.654,-0.549c0.21,-0.19 0.428,-0.373 0.654,-0.548c2.172,-1.971 5.267,-3.145 8.767,-3.385c0.337,-0.024 0.668,-0.04 0.993,-0.049c-0.792,-0.244 -1.845,-0.337 -3.21,-0.244c-1.612,0.111 -3.484,0.499 -4.836,0.956c-0.468,0.136 -0.936,0.272 -1.3,0.297c-1.768,0.122 -3.12,-1.137 -3.12,-2.957c0,-1.219 0.634,-2.195 1.556,-2.807c0.194,-0.206 0.414,-0.389 0.654,-0.548c0.194,-0.206 0.415,-0.39 0.654,-0.548c0.195,-0.206 0.415,-0.39 0.654,-0.549c0.195,-0.206 0.415,-0.389 0.654,-0.548c0.195,-0.206 0.415,-0.39 0.654,-0.548c0.195,-0.206 0.415,-0.39 0.654,-0.549c0.195,-0.206 0.415,-0.389 0.655,-0.548ZM121.257,35.382c2.127,-1.885 4.722,-3.162 7.784,-3.372c4.992,-0.342 8.06,2.515 8.06,7.559c0,1.56 -0.468,3.568 -0.936,5.368l-3.016,11.491c-0.421,1.614 -1.224,2.831 -2.271,3.555c-0.205,0.206 -0.423,0.389 -0.654,0.549c-0.205,0.206 -0.424,0.389 -0.654,0.548c-0.205,0.206 -0.424,0.389 -0.654,0.548c-0.205,0.206 -0.424,0.389 -0.654,0.549c-0.205,0.206 -0.424,0.389 -0.654,0.548c-0.206,0.206 -0.424,0.389 -0.654,0.548c-0.206,0.206 -0.424,0.39 -0.655,0.549c-0.772,0.775 -1.732,1.227 -2.803,1.3c-2.652,0.182 -4.056,-1.645 -3.172,-4.982l2.808,-10.593c0.208,-0.794 0.364,-1.845 0.364,-2.521c0,-2.236 -1.248,-3.346 -3.692,-3.178c-0.061,0.004 -0.121,0.009 -0.18,0.015c-0.2,0.492 -0.372,1.017 -0.515,1.569l-3.224,12.181c-0.421,1.614 -1.224,2.831 -2.271,3.555c-0.205,0.206 -0.423,0.389 -0.654,0.549c-0.205,0.205 -0.424,0.389 -0.654,0.548c-0.205,0.206 -0.424,0.389 -0.654,0.548c-0.205,0.206 -0.424,0.389 -0.654,0.549c-0.205,0.206 -0.424,0.389 -0.654,0.548c-0.206,0.206 -0.424,0.389 -0.654,0.548c-0.206,0.206 -0.424,0.389 -0.655,0.549c-0.772,0.775 -1.732,1.227 -2.803,1.3c-2.652,0.182 -4.056,-1.645 -3.172,-4.982l2.808,-10.593c0.208,-0.794 0.364,-1.845 0.364,-2.521c0,-2.236 -1.248,-3.346 -3.692,-3.178c-0.061,0.004 -0.121,0.009 -0.18,0.015c-0.2,0.492 -0.372,1.017 -0.515,1.569l-3.224,12.181c-0.421,1.614 -1.224,2.831 -2.271,3.555c-0.205,0.206 -0.423,0.389 -0.654,0.548c-0.205,0.206 -0.424,0.389 -0.654,0.549c-0.205,0.206 -0.424,0.389 -0.654,0.548c-0.205,0.206 -0.424,0.389 -0.654,0.548c-0.205,0.206 -0.424,0.39 -0.654,0.549c-0.206,0.206 -0.424,0.389 -0.654,0.548c-0.206,0.206 -0.424,0.389 -0.655,0.548c-0.772,0.776 -1.732,1.228 -2.803,1.301c-2.652,0.182 -4.056,-1.646 -3.172,-4.982l5.148,-19.646c0.413,-1.585 1.194,-2.787 2.25,-3.518c0.204,-0.205 0.423,-0.388 0.654,-0.549c0.204,-0.204 0.423,-0.388 0.654,-0.548c0.205,-0.205 0.423,-0.388 0.654,-0.548c0.205,-0.205 0.423,-0.388 0.655,-0.549c0.204,-0.204 0.422,-0.388 0.654,-0.548c0.204,-0.205 0.422,-0.388 0.654,-0.548c0.204,-0.205 0.422,-0.388 0.654,-0.549c0.797,-0.799 1.81,-1.267 2.98,-1.347c2.248,-0.155 3.492,1.166 3.534,2.89c0.125,-0.106 0.252,-0.21 0.38,-0.312c0.214,-0.187 0.431,-0.37 0.654,-0.548c1.742,-1.523 3.759,-2.81 6.352,-2.988c3.627,-0.249 6.068,1.388 7.23,4.146c0.129,-0.109 0.259,-0.216 0.392,-0.321c0.213,-0.189 0.431,-0.372 0.654,-0.548c0.213,-0.189 0.431,-0.372 0.654,-0.548c0.213,-0.189 0.431,-0.372 0.654,-0.549ZM147.705,34.315c2.705,-2.377 6.171,-4.009 10.196,-4.286c7.228,-0.496 11.388,3.899 11.388,10.087c0,0.884 -0.104,1.931 -0.312,2.881c-0.334,1.49 -0.945,2.55 -1.888,3.156c-0.198,0.212 -0.415,0.395 -0.655,0.549c-0.197,0.211 -0.415,0.394 -0.654,0.548c-0.197,0.212 -0.415,0.394 -0.654,0.548c-0.197,0.212 -0.415,0.395 -0.654,0.549c-0.197,0.211 -0.415,0.394 -0.654,0.548c-0.197,0.212 -0.415,0.394 -0.654,0.548c-0.197,0.212 -0.415,0.395 -0.654,0.549c-0.234,0.251 -0.497,0.461 -0.79,0.631c0.044,-0.006 0.089,-0.01 0.133,-0.013c1.664,-0.114 2.964,1.045 2.964,2.813c0,1.092 -0.624,2.123 -1.508,2.755c-0.042,0.031 -0.084,0.061 -0.127,0.091c-0.161,0.169 -0.338,0.322 -0.528,0.458c-0.041,0.03 -0.083,0.06 -0.126,0.09c-0.161,0.169 -0.339,0.323 -0.528,0.458c-0.042,0.03 -0.084,0.061 -0.126,0.091c-0.161,0.168 -0.339,0.322 -0.528,0.457c-0.042,0.031 -0.084,0.061 -0.126,0.091c-0.162,0.169 -0.339,0.322 -0.528,0.458c-0.042,0.03 -0.084,0.06 -0.126,0.09c-0.162,0.169 -0.339,0.323 -0.528,0.458c-0.042,0.031 -0.084,0.061 -0.126,0.091c-0.162,0.168 -0.339,0.322 -0.528,0.457c-0.042,0.031 -0.084,0.061 -0.126,0.091c-0.162,0.169 -0.339,0.322 -0.528,0.458c-0.042,0.03 -0.084,0.06 -0.126,0.09c-0.162,0.169 -0.339,0.323 -0.528,0.458c-2.444,1.78 -5.564,2.878 -9.048,3.117c-8.008,0.55 -12.896,-3.795 -12.896,-11.491c0,-5.067 2.59,-10.518 6.994,-14.037c0.214,-0.188 0.432,-0.371 0.654,-0.549c0.214,-0.187 0.432,-0.37 0.655,-0.548c0.213,-0.187 0.431,-0.37 0.654,-0.548c0.213,-0.188 0.431,-0.371 0.654,-0.549c0.213,-0.187 0.431,-0.37 0.654,-0.548c0.213,-0.188 0.431,-0.37 0.654,-0.548c0.213,-0.188 0.431,-0.371 0.654,-0.549ZM187.478,29.626c1.096,-1.023 2.261,-1.574 3.495,-1.658c2.028,-0.139 3.38,1.068 3.38,3.304c0,1.499 -0.541,2.63 -1.738,3.459c-0.191,0.196 -0.409,0.379 -0.654,0.549c-0.192,0.196 -0.409,0.378 -0.655,0.548c-0.191,0.196 -0.408,0.378 -0.654,0.548c-0.191,0.196 -0.408,0.379 -0.654,0.549c-0.191,0.196 -0.409,0.378 -0.654,0.548c-0.191,0.196 -0.409,0.379 -0.654,0.548c-0.191,0.196 -0.409,0.379 -0.654,0.549c-0.553,0.566 -1.327,1.021 -2.348,1.38c-0.606,0.214 -1.185,0.452 -1.737,0.716c-1.172,1.668 -2.082,3.73 -2.754,6.277l-1.716,6.305c-0.421,1.614 -1.224,2.832 -2.271,3.555c-0.205,0.206 -0.423,0.39 -0.654,0.549c-0.205,0.206 -0.424,0.389 -0.654,0.548c-0.205,0.206 -0.424,0.389 -0.654,0.549c-0.205,0.206 -0.424,0.389 -0.654,0.548c-0.205,0.206 -0.424,0.389 -0.654,0.548c-0.206,0.206 -0.424,0.389 -0.654,0.549c-0.206,0.206 -0.424,0.389 -0.655,0.548c-0.772,0.775 -1.732,1.227 -2.803,1.301c-2.652,0.182 -4.056,-1.646 -3.172,-4.983l5.2,-19.649c0.42,-1.613 1.223,-2.831 2.27,-3.555c0.205,-0.206 0.424,-0.389 0.654,-0.548c0.205,-0.206 0.424,-0.389 0.654,-0.548c0.205,-0.206 0.424,-0.39 0.654,-0.549c0.205,-0.206 0.424,-0.389 0.654,-0.548c0.206,-0.206 0.424,-0.389 0.655,-0.548c0.205,-0.206 0.423,-0.39 0.654,-0.549c0.205,-0.206 0.423,-0.389 0.654,-0.548c0.772,-0.775 1.733,-1.227 2.804,-1.301c2.161,-0.148 3.424,1.095 3.4,3.159c0.2,-0.184 0.402,-0.352 0.607,-0.505c0.215,-0.201 0.433,-0.384 0.654,-0.548c0.215,-0.201 0.433,-0.384 0.654,-0.549c0.216,-0.201 0.434,-0.384 0.654,-0.548ZM218.401,20.746c2.656,-2.369 6.365,-3.834 10.376,-4.109c5.668,-0.389 8.736,1.013 11.076,2.464c1.092,0.705 1.872,1.588 1.872,3.2c0,1.437 -0.732,2.689 -1.834,3.439c-0.199,0.204 -0.418,0.387 -0.654,0.548c-0.199,0.204 -0.418,0.388 -0.654,0.549c-0.199,0.203 -0.418,0.387 -0.655,0.548c-0.198,0.204 -0.417,0.387 -0.654,0.548c-0.198,0.204 -0.417,0.388 -0.654,0.549c-0.198,0.203 -0.417,0.387 -0.654,0.548c-0.198,0.204 -0.418,0.387 -0.654,0.548c-0.713,0.732 -1.692,1.206 -2.772,1.281c-0.832,0.057 -1.612,-0.098 -2.184,-0.527c-2.392,-1.707 -4.472,-2.449 -7.436,-2.245l-0.055,0.004c0.171,1.681 1.737,2.423 6.38,4.01c4.992,1.685 8.736,3.925 8.736,9.229c0,4.008 -1.874,7.273 -4.759,9.548c-0.211,0.188 -0.43,0.371 -0.654,0.548c-0.212,0.189 -0.43,0.372 -0.654,0.548c-0.212,0.189 -0.43,0.372 -0.654,0.549c-0.212,0.189 -0.43,0.371 -0.654,0.548c-0.212,0.189 -0.43,0.372 -0.654,0.548c-0.212,0.189 -0.43,0.372 -0.654,0.549c-0.212,0.189 -0.43,0.371 -0.655,0.548c-2.679,2.39 -6.405,3.837 -10.351,4.108c-4.316,0.297 -9.724,-0.268 -13.468,-3.235c-0.884,-0.668 -1.56,-1.817 -1.56,-3.221c0,-1.518 0.732,-2.858 1.878,-3.632c0.199,-0.205 0.418,-0.388 0.655,-0.548c0.198,-0.205 0.417,-0.389 0.654,-0.549c0.198,-0.204 0.417,-0.388 0.654,-0.548c0.198,-0.205 0.417,-0.388 0.654,-0.548c0.198,-0.205 0.417,-0.389 0.654,-0.549c0.198,-0.204 0.417,-0.388 0.654,-0.548c0.199,-0.205 0.417,-0.389 0.654,-0.548c0.686,-0.708 1.617,-1.168 2.676,-1.241c1.092,-0.075 2.028,0.433 2.548,0.813c3.068,2.338 5.356,3.169 8.944,2.923c0.108,-0.008 0.216,-0.017 0.322,-0.028c-0.117,-1.619 -1.514,-2.557 -6.179,-4.123c-4.732,-1.599 -8.944,-3.858 -8.944,-9.214c0,-3.917 1.846,-7.167 4.734,-9.444c0.212,-0.188 0.43,-0.371 0.654,-0.548c0.212,-0.189 0.43,-0.372 0.655,-0.549c0.211,-0.188 0.429,-0.371 0.654,-0.548c0.211,-0.188 0.429,-0.371 0.654,-0.548c0.211,-0.189 0.429,-0.372 0.654,-0.549c0.211,-0.188 0.429,-0.371 0.654,-0.548c0.211,-0.188 0.43,-0.371 0.654,-0.548ZM277.969,25.376c2.732,-2.399 6.176,-4.011 9.932,-4.269c8.268,-0.567 13.416,4.54 13.416,11.976c0,5.099 -2.696,10.188 -6.843,13.505c-0.214,0.188 -0.432,0.371 -0.654,0.549c-0.214,0.187 -0.432,0.37 -0.654,0.548c-0.214,0.188 -0.432,0.371 -0.654,0.548c-0.214,0.188 -0.432,0.371 -0.655,0.549c-0.213,0.187 -0.431,0.37 -0.654,0.548c-0.213,0.188 -0.431,0.371 -0.654,0.548c-0.213,0.188 -0.431,0.371 -0.654,0.549c-2.731,2.399 -6.176,4.011 -9.931,4.269c-6.9,0.473 -11.627,-3.004 -13.002,-8.489c-0.121,0.889 -0.549,1.59 -1.161,2.157c-0.232,0.204 -0.464,0.399 -0.697,0.585c-0.217,0.191 -0.435,0.373 -0.654,0.549c-0.217,0.19 -0.435,0.373 -0.654,0.548c-0.217,0.19 -0.435,0.373 -0.654,0.549c-0.218,0.19 -0.435,0.372 -0.654,0.548c-0.218,0.19 -0.436,0.373 -0.655,0.548c-0.217,0.19 -0.435,0.373 -0.654,0.549c-0.217,0.19 -0.435,0.372 -0.654,0.548c-2.743,2.401 -5.592,3.626 -9.317,3.881c-7.592,0.521 -13,-4.099 -13,-11.691c0,-5.454 2.708,-10.459 6.792,-13.725c0.214,-0.188 0.432,-0.37 0.654,-0.548c0.214,-0.188 0.432,-0.371 0.654,-0.549c0.214,-0.187 0.432,-0.37 0.655,-0.548c0.213,-0.188 0.431,-0.371 0.654,-0.548c0.213,-0.188 0.432,-0.371 0.654,-0.549c0.214,-0.187 0.432,-0.37 0.654,-0.548c0.214,-0.188 0.432,-0.371 0.654,-0.548c2.842,-2.496 6.441,-4.12 10.294,-4.384c5.148,-0.353 7.852,1.437 9.412,2.838c0.78,0.675 1.456,1.616 1.456,2.968c0,1.317 -0.702,2.529 -1.779,3.257c-0.197,0.203 -0.416,0.387 -0.654,0.548c-0.197,0.204 -0.416,0.388 -0.654,0.548c-0.197,0.204 -0.416,0.388 -0.654,0.549c-0.197,0.203 -0.417,0.387 -0.654,0.548c-0.197,0.204 -0.417,0.388 -0.654,0.548c-0.198,0.204 -0.417,0.388 -0.654,0.549c-0.198,0.203 -0.417,0.388 -0.654,0.548c-0.681,0.702 -1.619,1.172 -2.672,1.244c-1.144,0.079 -1.924,-0.232 -2.6,-0.965c-1.196,-1.374 -2.808,-2.147 -5.096,-1.99c-0.413,0.028 -0.822,0.1 -1.225,0.213c-0.963,1.655 -1.55,3.611 -1.55,5.621c0,3.588 2.392,5.712 5.46,5.502c1.612,-0.111 3.12,-0.63 4.784,-1.889c0.624,-0.458 1.456,-0.984 2.34,-1.044c1.237,-0.085 2.258,0.518 2.785,1.484c-0.042,-0.452 -0.062,-0.915 -0.062,-1.387c0,-5.1 2.695,-10.189 6.842,-13.506c0.214,-0.188 0.432,-0.371 0.654,-0.549c0.214,-0.187 0.432,-0.37 0.654,-0.548c0.214,-0.188 0.432,-0.37 0.655,-0.548c0.213,-0.188 0.431,-0.371 0.654,-0.549c0.213,-0.187 0.431,-0.37 0.654,-0.548c0.213,-0.188 0.431,-0.37 0.654,-0.548c0.214,-0.188 0.432,-0.371 0.654,-0.549ZM314.373,13.483c0.772,-0.775 1.733,-1.227 2.804,-1.301c2.652,-0.182 4.056,1.646 3.172,4.983l-0.624,2.278l2.652,-0.182c1.82,-0.125 3.276,1.231 3.276,3.155c0,1.292 -0.656,2.417 -1.638,3.056c-0.196,0.208 -0.415,0.393 -0.654,0.548c-0.196,0.209 -0.415,0.393 -0.654,0.548c-0.196,0.209 -0.415,0.393 -0.654,0.549c-0.196,0.208 -0.416,0.393 -0.654,0.548c-0.196,0.209 -0.416,0.393 -0.655,0.548c-0.195,0.209 -0.415,0.393 -0.654,0.549c-0.195,0.208 -0.415,0.393 -0.654,0.548c-0.589,0.628 -1.397,1.037 -2.292,1.098l-0.314,0.022l-2.045,7.812c-0.104,0.424 -0.208,0.951 -0.208,1.263c0,1.04 0.676,1.617 1.976,1.528l0.624,-0.043c1.56,-0.107 2.808,0.795 2.808,2.771c0,1.49 -0.628,2.475 -1.576,3.102c-0.194,0.208 -0.414,0.39 -0.654,0.548c-0.194,0.208 -0.414,0.39 -0.654,0.549c-0.194,0.207 -0.414,0.389 -0.654,0.548c-0.194,0.208 -0.414,0.39 -0.654,0.548c-0.195,0.208 -0.414,0.39 -0.655,0.549c-0.194,0.207 -0.413,0.389 -0.654,0.548c-0.194,0.208 -0.413,0.39 -0.654,0.548c-0.31,0.332 -0.686,0.599 -1.106,0.81c-1.456,0.724 -2.912,0.98 -4.628,1.098c-4.888,0.335 -7.228,-1.896 -7.228,-4.964c0,-1.144 0.208,-2.25 0.52,-3.52l3.38,-12.868c-1.352,-0.115 -2.912,-1.1 -2.912,-3.18c0,-1.291 0.656,-2.417 1.637,-3.055c0.196,-0.208 0.415,-0.393 0.654,-0.548c0.196,-0.209 0.415,-0.393 0.654,-0.549c0.196,-0.208 0.416,-0.392 0.654,-0.548c0.196,-0.208 0.416,-0.393 0.655,-0.548c0.195,-0.209 0.415,-0.393 0.654,-0.549c0.153,-0.163 0.322,-0.312 0.503,-0.444l0.257,-0.96c0.42,-1.613 1.223,-2.831 2.27,-3.555c0.205,-0.206 0.424,-0.389 0.654,-0.548c0.205,-0.206 0.424,-0.389 0.654,-0.548c0.205,-0.206 0.424,-0.39 0.654,-0.549c0.205,-0.206 0.424,-0.389 0.654,-0.548c0.206,-0.206 0.424,-0.389 0.655,-0.548c0.205,-0.206 0.423,-0.39 0.654,-0.549c0.205,-0.206 0.423,-0.389 0.654,-0.548ZM335.797,9.048c0.772,-0.775 1.733,-1.227 2.804,-1.3c2.652,-0.182 4.056,1.645 3.172,4.982l-7.904,29.923c-0.421,1.613 -1.224,2.831 -2.271,3.555c-0.205,0.206 -0.423,0.389 -0.654,0.548c-0.205,0.206 -0.424,0.389 -0.654,0.548c-0.205,0.206 -0.424,0.39 -0.654,0.549c-0.205,0.206 -0.424,0.389 -0.654,0.548c-0.205,0.206 -0.424,0.389 -0.654,0.548c-0.206,0.206 -0.424,0.39 -0.654,0.549c-0.206,0.206 -0.424,0.389 -0.655,0.548c-0.772,0.775 -1.732,1.227 -2.803,1.301c-2.652,0.182 -4.056,-1.646 -3.172,-4.983l7.904,-29.922c0.42,-1.614 1.223,-2.831 2.27,-3.555c0.205,-0.206 0.424,-0.389 0.654,-0.548c0.205,-0.206 0.424,-0.39 0.654,-0.549c0.205,-0.206 0.424,-0.389 0.654,-0.548c0.205,-0.206 0.424,-0.389 0.654,-0.548c0.206,-0.206 0.424,-0.39 0.655,-0.549c0.205,-0.206 0.423,-0.389 0.654,-0.548c0.205,-0.206 0.423,-0.389 0.654,-0.549ZM72.345,59.292c0.254,-0.49 0.458,-0.999 0.607,-1.517l0.208,-0.742c-1.352,-0.427 -3.276,-0.763 -5.2,-0.631c-0.143,0.01 -0.284,0.022 -0.423,0.038c-0.008,0.109 -0.012,0.22 -0.012,0.332c0,1.716 1.404,2.868 3.64,2.714c0.4,-0.027 0.795,-0.093 1.18,-0.194ZM347.563,19.393c0.404,-0.429 0.919,-0.76 1.49,-0.974c2.6,-1.011 5.46,-1.675 8.528,-1.886c7.488,-0.514 11.284,2.346 11.284,7.806c0,1.456 -0.26,2.826 -0.624,4.255l-3.12,11.914c-0.421,1.613 -1.224,2.831 -2.271,3.555c-0.205,0.206 -0.423,0.389 -0.654,0.548c-0.205,0.206 -0.424,0.389 -0.654,0.548c-0.205,0.206 -0.424,0.39 -0.654,0.549c-0.205,0.206 -0.424,0.389 -0.654,0.548c-0.205,0.206 -0.424,0.389 -0.654,0.549c-0.206,0.206 -0.424,0.389 -0.654,0.548c-0.206,0.206 -0.424,0.389 -0.655,0.548c-0.772,0.775 -1.732,1.227 -2.803,1.301c-2.92,0.2 -3.438,-1.554 -3.392,-3.075c-0.193,0.171 -0.39,0.335 -0.59,0.492c-0.214,0.191 -0.432,0.374 -0.654,0.548c-2.001,1.787 -4.375,2.861 -7.064,3.046c-4.836,0.332 -8.112,-2.563 -8.112,-6.931c0,-3.433 1.488,-6.157 3.899,-8.024c0.21,-0.19 0.428,-0.373 0.654,-0.548c0.21,-0.191 0.428,-0.373 0.655,-0.549c0.209,-0.19 0.427,-0.373 0.654,-0.548c0.209,-0.19 0.428,-0.373 0.654,-0.548c0.209,-0.191 0.428,-0.373 0.654,-0.549c0.21,-0.19 0.428,-0.373 0.654,-0.548c0.21,-0.19 0.428,-0.373 0.654,-0.548c2.172,-1.971 5.267,-3.145 8.767,-3.386c0.337,-0.023 0.668,-0.039 0.993,-0.048c-0.792,-0.244 -1.845,-0.338 -3.21,-0.244c-1.612,0.111 -3.484,0.499 -4.836,0.956c-0.468,0.136 -0.936,0.272 -1.3,0.297c-1.768,0.122 -3.12,-1.138 -3.12,-2.958c0,-1.218 0.634,-2.194 1.556,-2.806c0.194,-0.206 0.414,-0.389 0.654,-0.548c0.194,-0.206 0.415,-0.39 0.654,-0.549c0.195,-0.206 0.415,-0.389 0.654,-0.548c0.195,-0.206 0.415,-0.389 0.654,-0.548c0.195,-0.206 0.415,-0.39 0.654,-0.549c0.195,-0.206 0.415,-0.389 0.654,-0.548c0.195,-0.206 0.415,-0.389 0.655,-0.548ZM386.345,17.068c1.83,-1.603 4.058,-2.995 6.752,-3.18c4.992,-0.343 8.216,2.504 8.216,7.548c0,1.56 -0.468,3.568 -0.936,5.368l-3.016,11.491c-0.421,1.614 -1.224,2.831 -2.271,3.555c-0.205,0.206 -0.423,0.389 -0.654,0.548c-0.205,0.206 -0.424,0.39 -0.654,0.549c-0.205,0.206 -0.424,0.389 -0.654,0.548c-0.205,0.206 -0.424,0.389 -0.654,0.549c-0.205,0.206 -0.424,0.389 -0.654,0.548c-0.206,0.206 -0.424,0.389 -0.654,0.548c-0.206,0.206 -0.424,0.389 -0.655,0.549c-0.772,0.775 -1.732,1.227 -2.803,1.3c-2.652,0.182 -4.056,-1.645 -3.172,-4.982l2.808,-10.593c0.208,-0.794 0.364,-1.845 0.364,-2.521c0,-2.236 -1.404,-3.335 -3.848,-3.168c-0.094,0.007 -0.187,0.015 -0.278,0.025c-0.204,0.492 -0.378,1.016 -0.521,1.567l-3.224,12.181c-0.421,1.613 -1.224,2.831 -2.271,3.555c-0.205,0.206 -0.423,0.389 -0.654,0.548c-0.205,0.206 -0.424,0.389 -0.654,0.549c-0.205,0.206 -0.424,0.389 -0.654,0.548c-0.205,0.206 -0.424,0.389 -0.654,0.548c-0.205,0.206 -0.424,0.389 -0.654,0.549c-0.206,0.206 -0.424,0.389 -0.654,0.548c-0.206,0.206 -0.424,0.389 -0.655,0.548c-0.772,0.775 -1.732,1.227 -2.803,1.301c-2.652,0.182 -4.056,-1.646 -3.172,-4.982l5.148,-19.646c0.413,-1.585 1.194,-2.788 2.25,-3.518c0.204,-0.205 0.423,-0.388 0.654,-0.549c0.204,-0.205 0.423,-0.388 0.654,-0.548c0.205,-0.205 0.423,-0.388 0.654,-0.548c0.205,-0.205 0.423,-0.388 0.655,-0.549c0.204,-0.205 0.422,-0.388 0.654,-0.548c0.204,-0.205 0.422,-0.388 0.654,-0.548c0.204,-0.205 0.422,-0.388 0.654,-0.549c0.797,-0.799 1.81,-1.267 2.98,-1.348c2.256,-0.154 3.501,1.176 3.535,2.909c0.062,-0.051 0.124,-0.102 0.187,-0.152c0.212,-0.186 0.43,-0.37 0.654,-0.548ZM433.869,2.318c0.772,-0.776 1.733,-1.227 2.804,-1.301c2.652,-0.182 4.056,1.646 3.172,4.982l-7.852,29.919c-0.413,1.585 -1.195,2.788 -2.251,3.519c-0.204,0.205 -0.423,0.388 -0.654,0.548c-0.204,0.205 -0.423,0.388 -0.654,0.549c-0.204,0.204 -0.423,0.388 -0.654,0.548c-0.205,0.205 -0.423,0.388 -0.654,0.548c-0.205,0.205 -0.423,0.388 -0.655,0.549c-0.204,0.204 -0.422,0.388 -0.654,0.548c-0.204,0.205 -0.422,0.388 -0.654,0.548c-0.797,0.8 -1.81,1.268 -2.979,1.348c-2.242,0.154 -3.436,-1.062 -3.483,-2.97c-0.147,0.125 -0.294,0.247 -0.442,0.365c-0.217,0.191 -0.435,0.374 -0.654,0.548c-2.03,1.785 -4.113,2.862 -6.757,3.043c-6.084,0.418 -10.712,-3.685 -10.712,-11.225c0,-6.105 2.878,-11.335 6.931,-14.568c0.214,-0.188 0.432,-0.371 0.654,-0.548c0.214,-0.189 0.432,-0.371 0.654,-0.548c0.214,-0.189 0.432,-0.372 0.654,-0.549c0.214,-0.188 0.433,-0.371 0.654,-0.548c0.215,-0.189 0.433,-0.371 0.654,-0.548c0.215,-0.189 0.433,-0.372 0.654,-0.549c0.215,-0.188 0.433,-0.371 0.655,-0.548c2.637,-2.321 5.849,-3.765 9.115,-3.989c2.236,-0.153 3.996,0.203 5.425,0.941l0.834,-3.219c0.42,-1.614 1.223,-2.831 2.27,-3.555c0.205,-0.206 0.424,-0.389 0.654,-0.548c0.205,-0.206 0.424,-0.389 0.654,-0.549c0.205,-0.206 0.424,-0.389 0.654,-0.548c0.205,-0.206 0.424,-0.389 0.654,-0.548c0.206,-0.206 0.424,-0.389 0.655,-0.549c0.205,-0.206 0.423,-0.389 0.654,-0.548c0.205,-0.206 0.423,-0.389 0.654,-0.548ZM160.186,51.107c-0.078,0.009 -0.158,0.016 -0.238,0.022l-9.361,0.642c1.031,0.842 2.528,1.259 4.558,1.12c1.716,-0.118 3.276,-0.745 4.316,-1.389c0.222,-0.135 0.467,-0.271 0.725,-0.395ZM286.871,43.303c0.943,-1.648 1.465,-3.491 1.465,-5.094c0,-4.056 -2.444,-6.176 -6.032,-5.93c-0.452,0.031 -0.89,0.107 -1.311,0.221c-0.943,1.648 -1.464,3.491 -1.464,5.094c0,4.056 2.444,6.176 6.032,5.93c0.451,-0.031 0.889,-0.106 1.31,-0.221ZM353.561,39.992c0.254,-0.49 0.458,-1 0.607,-1.517l0.208,-0.742c-1.352,-0.427 -3.276,-0.763 -5.2,-0.631c-0.143,0.009 -0.284,0.022 -0.423,0.038c-0.008,0.109 -0.012,0.22 -0.012,0.332c0,1.716 1.404,2.868 3.64,2.714c0.4,-0.027 0.795,-0.093 1.18,-0.194ZM421.005,34.022c0.961,-1.62 1.543,-3.535 1.543,-5.544c0,-3.536 -2.496,-5.757 -5.98,-5.518c-0.52,0.036 -1.035,0.133 -1.54,0.286c-0.931,1.619 -1.495,3.562 -1.495,5.671c0,3.64 2.288,5.667 5.824,5.424c0.557,-0.038 1.109,-0.147 1.648,-0.319ZM156.08,42.426c-0.663,-1.101 -1.962,-1.765 -4.036,-1.623c-0.611,0.042 -1.202,0.152 -1.769,0.323c-0.31,0.55 -0.577,1.137 -0.798,1.754l6.603,-0.454Z" style="fill:#00b01d;"/><path d="M18.259,31.102c-2.08,0.143 -3.796,1.716 -4.472,4.311l-7.384,28.015c-0.884,3.336 0.572,5.16 3.224,4.978c2.08,-0.143 3.796,-1.716 4.472,-4.311l2.808,-10.592l14.976,-1.028c2.028,-0.139 3.64,-1.862 3.64,-3.89c0,-2.028 -1.612,-3.529 -3.64,-3.39l-13.052,0.896l2.08,-7.891l17.368,-1.192c2.028,-0.139 3.64,-1.862 3.64,-3.89c0,-2.028 -1.612,-3.529 -3.64,-3.39l-20.02,1.374ZM52.891,41.673c0.676,-2.854 -0.624,-4.689 -3.224,-4.511c-2.08,0.143 -3.744,1.713 -4.42,4.308l-5.2,19.648c-0.884,3.337 0.52,5.165 3.172,4.983c2.08,-0.143 3.744,-1.713 4.42,-4.308l1.716,-6.305c1.664,-6.303 4.784,-9.637 9.724,-11.38c2.392,-0.84 3.432,-2.211 3.432,-4.291c0,-2.236 -1.352,-3.443 -3.38,-3.304c-2.392,0.164 -4.524,2.078 -6.396,5.795l0.156,-0.635ZM80.139,63.567c2.08,-0.143 3.744,-1.713 4.42,-4.307l3.12,-11.915c0.364,-1.429 0.624,-2.798 0.624,-4.254c0,-5.46 -3.796,-8.32 -11.284,-7.806c-3.068,0.211 -5.928,0.875 -8.528,1.885c-1.352,0.509 -2.392,1.673 -2.392,3.233c0,1.82 1.352,3.079 3.12,2.957c0.364,-0.025 0.832,-0.161 1.3,-0.297c1.352,-0.457 3.224,-0.845 4.836,-0.956c3.9,-0.267 5.252,0.992 5.252,2.916c0,0.832 -0.156,1.467 -0.312,2.101l-0.104,0.371c-2.34,-0.567 -4.836,-0.916 -7.852,-0.709c-6.76,0.464 -12.012,4.413 -12.012,10.861c0,4.368 3.276,7.263 8.112,6.931c3.276,-0.225 6.084,-1.77 8.32,-4.315c-0.104,1.567 0.312,3.514 3.38,3.304ZM108.947,56.39c-0.884,3.336 0.52,5.164 3.172,4.982c2.08,-0.143 3.744,-1.713 4.42,-4.307l3.224,-12.182c0.884,-3.388 2.808,-5.756 5.928,-5.97c2.444,-0.168 3.692,0.942 3.692,3.178c0,0.676 -0.156,1.727 -0.364,2.521l-2.808,10.593c-0.884,3.337 0.52,5.164 3.172,4.982c2.08,-0.142 3.744,-1.713 4.42,-4.307l3.016,-11.491c0.468,-1.8 0.936,-3.808 0.936,-5.368c0,-5.044 -3.068,-7.902 -8.06,-7.559c-4.212,0.289 -7.54,2.597 -9.984,5.729c-1.092,-2.993 -3.588,-4.798 -7.384,-4.537c-3.12,0.214 -5.408,2.035 -7.384,3.939c0,-1.768 -1.248,-3.139 -3.536,-2.982c-2.236,0.154 -3.9,1.724 -4.576,4.318l-5.148,19.646c-0.884,3.336 0.52,5.164 3.172,4.982c2.08,-0.143 3.744,-1.713 4.42,-4.307l3.224,-12.182c0.884,-3.388 2.808,-5.756 5.928,-5.971c2.444,-0.167 3.692,0.943 3.692,3.179c0,0.676 -0.156,1.727 -0.364,2.521l-2.808,10.593ZM155.799,52.342c-4.16,0.286 -6.084,-1.766 -6.344,-5.024l16.38,-1.124c2.08,-0.143 3.276,-1.421 3.796,-3.745c0.208,-0.95 0.312,-1.997 0.312,-2.881c0,-6.188 -4.16,-10.583 -11.388,-10.087c-9.984,0.685 -16.536,9.715 -16.536,17.775c0,7.696 4.888,12.041 12.896,11.491c3.484,-0.239 6.604,-1.337 9.048,-3.117c0.884,-0.633 1.508,-1.664 1.508,-2.756c0,-1.768 -1.3,-2.926 -2.964,-2.812c-0.832,0.057 -1.716,0.482 -2.392,0.892c-1.04,0.643 -2.6,1.271 -4.316,1.388ZM185.387,32.58c0.676,-2.855 -0.624,-4.69 -3.224,-4.511c-2.08,0.143 -3.744,1.713 -4.42,4.307l-5.2,19.649c-0.884,3.337 0.52,5.164 3.172,4.982c2.08,-0.142 3.744,-1.713 4.42,-4.307l1.716,-6.306c1.664,-6.302 4.784,-9.636 9.724,-11.379c2.392,-0.84 3.432,-2.212 3.432,-4.292c0,-2.236 -1.352,-3.443 -3.38,-3.304c-2.392,0.165 -4.524,2.079 -6.396,5.795l0.156,-0.634ZM224.543,46.844c-3.588,0.247 -5.876,-0.584 -8.944,-2.922c-0.52,-0.38 -1.456,-0.888 -2.548,-0.813c-2.236,0.153 -3.9,2.036 -3.9,4.324c0,1.404 0.676,2.553 1.56,3.221c3.744,2.967 9.152,3.532 13.468,3.235c7.644,-0.524 14.456,-5.464 14.456,-13.108c0,-5.304 -3.744,-7.543 -8.736,-9.228c-4.94,-1.689 -6.396,-2.421 -6.396,-4.345c0,-1.82 1.924,-3.824 5.304,-4.056c2.964,-0.204 5.044,0.538 7.436,2.245c0.572,0.429 1.352,0.584 2.184,0.526c2.184,-0.149 3.952,-1.935 3.952,-4.171c0,-1.612 -0.78,-2.494 -1.872,-3.199c-2.34,-1.452 -5.408,-2.853 -11.076,-2.464c-7.8,0.535 -14.456,5.568 -14.456,13.004c0,5.356 4.212,7.615 8.944,9.214c4.888,1.641 6.188,2.591 6.188,4.359c0,2.288 -2.34,3.957 -5.564,4.178ZM71.819,58.938c-2.236,0.153 -3.64,-0.998 -3.64,-2.714c0,-2.704 2.392,-4.532 5.668,-4.757c1.924,-0.132 3.848,0.204 5.2,0.631l-0.208,0.742c-0.884,3.077 -3.744,5.873 -7.02,6.098ZM266.455,47.816c0.728,-0.674 1.196,-1.538 1.196,-2.682c0,-1.82 -1.352,-3.183 -3.172,-3.059c-0.884,0.061 -1.716,0.586 -2.34,1.045c-1.664,1.258 -3.172,1.778 -4.784,1.888c-3.068,0.211 -5.46,-1.913 -5.46,-5.501c0,-5.148 3.848,-9.936 8.008,-10.221c2.288,-0.158 3.9,0.616 5.096,1.99c0.676,0.733 1.456,1.044 2.6,0.965c2.132,-0.146 3.796,-1.924 3.796,-3.952c0,-1.352 -0.676,-2.294 -1.456,-2.968c-1.56,-1.401 -4.264,-3.192 -9.412,-2.838c-8.892,0.61 -16.432,8.459 -16.432,17.559c0,7.592 5.408,12.213 13,11.692c3.744,-0.257 6.604,-1.493 9.36,-3.918ZM285.851,49.761c8.944,-0.614 16.12,-8.907 16.12,-17.227c0,-7.436 -5.148,-12.542 -13.416,-11.975c-8.944,0.614 -16.12,8.906 -16.12,17.226c0,7.436 5.148,12.543 13.416,11.976ZM312.475,19.437l-1.456,0.1c-1.82,0.125 -3.276,1.681 -3.276,3.605c0,2.08 1.56,3.065 2.912,3.18l-3.38,12.868c-0.312,1.27 -0.52,2.376 -0.52,3.52c0,3.068 2.34,5.299 7.228,4.964c1.716,-0.118 3.172,-0.374 4.628,-1.098c1.196,-0.602 2.028,-1.647 2.028,-3.363c0,-1.976 -1.248,-2.878 -2.808,-2.771l-0.624,0.043c-1.3,0.089 -1.976,-0.489 -1.976,-1.529c0,-0.312 0.104,-0.839 0.208,-1.262l3.12,-11.914l4.472,-0.307c1.82,-0.125 3.276,-1.681 3.276,-3.605c0,-1.924 -1.456,-3.28 -3.276,-3.155l-2.652,0.182l0.624,-2.279c0.884,-3.337 -0.52,-5.164 -3.172,-4.982c-2.08,0.143 -3.744,1.713 -4.42,4.307l-0.936,3.496ZM342.427,12.182c0.884,-3.337 -0.52,-5.165 -3.172,-4.982c-2.08,0.142 -3.744,1.712 -4.42,4.307l-7.904,29.922c-0.884,3.337 0.52,5.165 3.172,4.983c2.08,-0.143 3.744,-1.713 4.42,-4.308l7.904,-29.922ZM361.355,44.267c2.08,-0.143 3.744,-1.713 4.42,-4.308l3.12,-11.914c0.364,-1.429 0.624,-2.799 0.624,-4.255c0,-5.46 -3.796,-8.319 -11.284,-7.805c-3.068,0.21 -5.928,0.875 -8.528,1.885c-1.352,0.509 -2.392,1.672 -2.392,3.232c0,1.82 1.352,3.08 3.12,2.958c0.364,-0.025 0.832,-0.161 1.3,-0.297c1.352,-0.457 3.224,-0.845 4.836,-0.956c3.9,-0.268 5.252,0.992 5.252,2.916c0,0.832 -0.156,1.466 -0.312,2.101l-0.104,0.371c-2.34,-0.567 -4.836,-0.916 -7.852,-0.709c-6.76,0.464 -12.012,4.412 -12.012,10.86c0,4.368 3.276,7.264 8.112,6.932c3.276,-0.225 6.084,-1.77 8.32,-4.315c-0.104,1.567 0.312,3.514 3.38,3.304ZM382.623,14.311c-2.236,0.154 -3.9,1.724 -4.576,4.318l-5.148,19.645c-0.884,3.337 0.52,5.165 3.172,4.983c2.08,-0.143 3.744,-1.713 4.42,-4.308l3.224,-12.181c0.884,-3.389 2.912,-5.764 6.032,-5.978c2.444,-0.168 3.848,0.932 3.848,3.168c0,0.676 -0.156,1.727 -0.364,2.521l-2.808,10.593c-0.884,3.336 0.52,5.164 3.172,4.982c2.08,-0.143 3.744,-1.713 4.42,-4.307l3.016,-11.491c0.468,-1.8 0.936,-3.808 0.936,-5.368c0,-5.044 -3.224,-7.891 -8.216,-7.549c-3.12,0.215 -5.616,2.05 -7.592,3.953c0,-1.768 -1.248,-3.138 -3.536,-2.981ZM428.071,39.688c2.236,-0.153 3.9,-1.724 4.576,-4.318l7.852,-29.919c0.884,-3.337 -0.52,-5.164 -3.172,-4.982c-2.08,0.142 -3.744,1.713 -4.42,4.307l-2.756,10.641c-1.82,-2.631 -4.368,-4.276 -8.736,-3.976c-7.852,0.539 -15.392,8.128 -15.392,18.008c0,7.54 4.628,11.643 10.712,11.225c3.12,-0.214 5.46,-1.675 7.852,-4.075c0,1.976 1.196,3.246 3.484,3.089ZM286.215,42.976c-3.588,0.246 -6.032,-1.874 -6.032,-5.93c0,-3.952 3.172,-9.37 8.008,-9.702c3.588,-0.246 6.032,1.874 6.032,5.93c0,3.952 -3.172,9.37 -8.008,9.702ZM353.035,39.638c-2.236,0.153 -3.64,-0.998 -3.64,-2.714c0,-2.704 2.392,-4.533 5.668,-4.757c1.924,-0.132 3.848,0.203 5.2,0.631l-0.208,0.742c-0.884,3.077 -3.744,5.873 -7.02,6.098ZM420.011,33.793c-3.536,0.243 -5.824,-1.784 -5.824,-5.424c0,-5.616 4.004,-10.051 8.268,-10.344c3.484,-0.239 5.98,1.982 5.98,5.518c0,5.304 -4.056,9.95 -8.424,10.25ZM150.131,42.331c1.3,-3.625 4.212,-6.217 7.8,-6.463c3.224,-0.221 4.576,1.506 4.576,3.794c0,0.676 -0.104,1.307 -0.26,1.838l-12.116,0.831Z" style="fill:#80ff97;"/></g></svg>